<svg width="76" height="76" viewBox="0 0 76 76" fill="none" xmlns="http://www.w3.org/2000/svg">
<circle cx="38" cy="38" r="38" fill="#10B7AB"/>
<path d="M64 66C64 62.323 63.3275 58.682 62.0209 55.2849C60.7142 51.8877 58.7991 48.801 56.3848 46.201C53.9705 43.601 51.1042 41.5385 47.9498 40.1314C44.7953 38.7242 41.4144 38 38 38C34.5856 38 31.2047 38.7242 28.0502 40.1314C24.8958 41.5385 22.0295 43.601 19.6152 46.201C17.2009 48.8011 15.2858 51.8877 13.9791 55.2849C12.6725 58.682 12 62.323 12 66" stroke="black"/>
<path d="M50.5 25.5C50.5 32.1091 44.9222 37.5 38 37.5C31.0778 37.5 25.5 32.1091 25.5 25.5C25.5 18.8909 31.0778 13.5 38 13.5C44.9222 13.5 50.5 18.8909 50.5 25.5Z" stroke="black"/>
</svg>
