<svg width="512" height="454" viewBox="0 0 512 454" fill="none" xmlns="http://www.w3.org/2000/svg">
<path d="M309.193 372.614C292.113 387.168 274.535 402.147 256 418.26C237.466 402.149 219.887 387.169 202.804 372.612C98.745 283.939 30 225.358 30 148.351C30 116.521 40.605 86.957 59.862 65.106C79.34 43.007 106.379 30.836 136 30.836C177.129 30.836 203.716 56.174 218.776 77.43C232.285 96.494 239.334 115.712 241.738 123.089C243.749 129.264 249.506 133.443 256 133.443C262.494 133.443 268.251 129.264 270.262 123.089C272.666 115.712 279.715 96.494 293.224 77.429C308.284 56.174 334.871 30.836 376 30.836C405.621 30.836 432.66 43.007 452.137 65.106C471.395 86.957 482 116.521 482 148.351C482 225.358 413.255 283.939 309.193 372.614Z" fill="#F71616"/>
<path fill-rule="evenodd" clip-rule="evenodd" d="M474.644 45.27C449.391 16.616 414.358 0.835999 376 0.835999C322.052 0.835999 287.897 33.056 268.745 60.086C263.776 67.1 259.549 74.133 256 80.751C252.451 74.133 248.225 67.1 243.255 60.086C224.103 33.056 189.948 0.835999 136 0.835999C97.642 0.835999 62.609 16.617 37.355 45.271C13.267 72.605 0 109.213 0 148.351C0 190.954 16.633 230.579 52.345 273.051C84.262 311.011 130.179 350.139 183.35 395.448L183.353 395.451C203.165 412.334 223.653 429.793 245.465 448.877L246.12 449.451C248.948 451.927 252.474 453.164 256 453.164C259.526 453.164 263.052 451.926 265.88 449.451L266.535 448.877C288.282 429.85 308.713 412.438 328.474 395.599L328.653 395.446C381.821 350.14 427.738 311.012 459.655 273.051C495.367 230.578 512 190.954 512 148.351C512 109.213 498.733 72.605 474.644 45.27ZM256 418.26C274.535 402.147 292.113 387.168 309.193 372.614C413.255 283.939 482 225.358 482 148.351C482 116.521 471.395 86.957 452.137 65.106C432.66 43.007 405.621 30.836 376 30.836C334.871 30.836 308.284 56.174 293.224 77.429C279.715 96.494 272.666 115.712 270.262 123.089C268.251 129.264 262.494 133.443 256 133.443C249.506 133.443 243.749 129.264 241.738 123.089C239.334 115.712 232.285 96.494 218.776 77.43C203.716 56.174 177.129 30.836 136 30.836C106.379 30.836 79.34 43.007 59.862 65.106C40.605 86.957 30 116.521 30 148.351C30 225.358 98.745 283.939 202.804 372.612C219.887 387.169 237.466 402.149 256 418.26Z" fill="#F71616"/>
</svg>
