<svg width="61" height="69" viewBox="0 0 61 69" fill="none" xmlns="http://www.w3.org/2000/svg">
<path d="M17.604 25.7907L21.5417 30.2269L28.6952 13.5258L53.1746 1C53.9596 1.19948 53.8966 1.58715 53.8966 1.58715L51.7717 6.67575L39.4583 36.1636L60 67.1519C59.9516 67.4693 59.8332 67.6553 59.475 68L47.0056 64.1509L45.2336 57.2356L21.0167 50.7993L14.0601 48.9503L7.75973 33.7498C7.75973 33.7498 2.18131 38.3165 1.78754 38.3165C1.39377 38.3165 1.01256 38.2324 1 37.7293L4.47831 25.7907H9.72859H17.604Z" fill="url(#paint0_linear)"/>
<path d="M28.6952 13.5258L21.5417 30.2269L17.604 25.7907H9.72859M28.6952 13.5258L53.1746 1C53.9596 1.19948 53.8966 1.58715 53.8966 1.58715L51.7717 6.67575M28.6952 13.5258L31.4516 19.4625M39.4583 36.1636L60 67.1519C59.9516 67.4693 59.8332 67.6553 59.475 68L47.0056 64.1509L45.2336 57.2356M39.4583 36.1636L51.7717 6.67575M39.4583 36.1636L31.4516 19.4625M39.4583 36.1636L20.5573 45.5579M39.4583 36.1636L40.2458 40.7303M45.2336 57.2356L21.0167 50.7993M45.2336 57.2356L40.2458 40.7303M14.0601 48.9503L7.75973 33.7498M14.0601 48.9503L16.6196 42.296L9.72859 25.7907M14.0601 48.9503L20.5573 45.5579M14.0601 48.9503L21.0167 50.7993M7.75973 33.7498C7.75973 33.7498 2.18131 38.3165 1.78754 38.3165C1.39377 38.3165 1.01256 38.2324 1 37.7293L4.47831 25.7907M7.75973 33.7498L4.47831 25.7907M4.47831 25.7907H9.72859M20.5573 45.5579L31.4516 19.4625M31.4516 19.4625L51.7717 6.67575M40.2458 40.7303L21.0167 50.7993" stroke="black"/>
<defs>
<linearGradient id="paint0_linear" x1="6.66295" y1="19.4512" x2="58.6284" y2="69.3779" gradientUnits="userSpaceOnUse">
<stop offset="0.0362945" stop-color="#5E60CE"/>
<stop offset="1" stop-color="#56CFE1" stop-opacity="0.978212"/>
</linearGradient>
</defs>
</svg>
